<?xml version="1.0" encoding="iso-8859-1"?>
<!--Generator: Adobe Illustrator 19.0.0, SVG Export Plug-In . SVG Version: 6.00 Build 0)-->
<svg xmlns="http://www.w3.org/2000/svg" xmlns:xlink="http://www.w3.org/1999/xlink" id="Layer_1" x="0px" y="0px" style="enable-background:new 0 0 512 512;" version="1.1" viewBox="0 0 512 512" xml:space="preserve">
    <g>
        <g>
            <path d="M314.507,70.622H197.488c-28.566,18.97-47.422,51.412-47.422,88.276
			c0,5.897,0.6,11.635,1.527,17.276l69.094-17.276c11.935,12.879,11.67,36.423,0,52.966l-63.841-15.96
			c15.025,40.227,53.681,68.926,99.151,68.926c58.5,0,105.931-47.431,105.931-105.931
			C361.928,122.034,343.073,89.593,314.507,70.622" class="test" style="fill:#E6E7E8;"/>
            <path d="M353.295,259.722c-22.581,26.43-57.706,40.413-97.298,40.413s-74.717-13.983-97.298-40.413
			c-27.039,25.706-43.944,61.952-43.944,102.206c0,45.462,21.495,85.866,54.855,111.695c10.099,7.812,22.607,11.891,35.381,11.891
			h102.012c12.774,0,25.282-4.078,35.381-11.891c33.359-25.83,54.855-66.233,54.855-111.695
			C397.239,321.674,380.334,285.428,353.295,259.722" class="test" style="fill:#E6E7E8;"/>
        </g>
        <g>
            <path d="M353.1,353.105c-2.26,0-4.52-0.865-6.241-2.586c-3.452-3.452-3.452-9.031,0-12.482L452.79,232.105
			c3.452-3.452,9.031-3.452,12.482,0s3.452,9.031,0,12.482L359.341,350.518C357.62,352.24,355.36,353.105,353.1,353.105" class="test" style="fill:#A46F3E;"/>
            <path d="M406.065,300.139c-4.873,0-8.828-3.955-8.828-8.828v-52.966c0-4.873,3.955-8.828,8.828-8.828
			s8.828,3.955,8.828,8.828v52.966C414.893,296.184,410.938,300.139,406.065,300.139" style="fill:#A46F3E;"/>
            <path d="M467.859,273.656h-35.31c-4.873,0-8.828-3.955-8.828-8.828s3.955-8.828,8.828-8.828h35.31
			c4.873,0,8.828,3.955,8.828,8.828S472.731,273.656,467.859,273.656" style="fill:#A46F3E;"/>
        </g>
        <polygon points="317.79,44.139 317.79,0.001 194.203,0.001 194.203,44.139 167.721,44.139 167.721,70.622 
		194.203,70.622 317.79,70.622 344.272,70.622 344.272,44.139 	" style="fill:#556080;"/>
        <path d="M220.686,158.898L220.686,158.898l-95.117,23.782c-2.816,0.697-2.816,4.705,0,5.402l95.117,23.782
		C232.356,195.32,232.621,171.777,220.686,158.898" style="fill:#F09A1E;"/>
        <g>
            <path d="M255.996,229.519c-4.873,0-8.828-3.955-8.828-8.828c0-4.873,3.955-8.828,8.828-8.828
			c14.601,0,26.483-11.882,26.483-26.483c0-4.873,3.955-8.828,8.828-8.828c4.873,0,8.828,3.955,8.828,8.828
			C300.134,209.718,280.334,229.519,255.996,229.519" style="fill:#556080;"/>
            <path d="M233.936,141.243c-3.196,0-6.276-1.739-7.848-4.767c-4.184-8.068-9.498-12.888-14.23-12.888
			s-10.046,4.82-14.23,12.888c-2.242,4.326-7.565,6.02-11.9,3.778c-4.334-2.242-6.02-7.574-3.778-11.9
			c7.495-14.46,18.114-22.422,29.908-22.422s22.413,7.962,29.908,22.422c2.242,4.326,0.556,9.657-3.778,11.9
			C236.691,140.925,235.305,141.243,233.936,141.243" style="fill:#556080;"/>
            <path d="M322.212,141.243c-3.196,0-6.276-1.739-7.848-4.767c-4.184-8.068-9.499-12.888-14.23-12.888
			s-10.046,4.82-14.23,12.888c-2.242,4.326-7.565,6.02-11.9,3.778c-4.334-2.242-6.02-7.574-3.778-11.9
			c7.495-14.46,18.114-22.422,29.908-22.422s22.413,7.962,29.908,22.422c2.242,4.326,0.556,9.657-3.778,11.9
			C324.966,140.925,323.58,141.243,322.212,141.243" style="fill:#556080;"/>
        </g>
        <path d="M348.728,210.073c-18.052,32.636-52.798,54.758-92.734,54.758s-74.62-22.157-92.646-54.81
		l-11.193,7.239c-7.698,4.988-10.787,15.06-6.55,23.19c20.295,38.93,62.058,59.692,110.389,59.692
		c48.34,0,90.103-20.762,110.398-59.692c4.228-8.13,1.148-18.202-6.55-23.19L348.728,210.073z" style="fill:#C03A2B;"/>
        <g>
            <path d="M255.996,300.139V406.07h52.965V290.623C292.905,296.864,274.985,300.139,255.996,300.139" style="fill:#9C281F;"/>
            <path d="M255.996,300.139c-18.609,0-36.202-3.151-52.012-9.154l-36.264,35.637l35.31,35.31l52.966-48.057
			V300.139z" style="fill:#9C281F;"/>
        </g>
        <g>
            <polygon points="255.996,406.07 308.962,406.07 308.962,370.76 255.996,370.76 		" style="fill:#F0C419;"/>
            <polygon points="194.434,300.371 167.721,326.624 203.032,361.934 230.803,336.74 		" style="fill:#F0C419;"/>
        </g>
        <path d="M356.387,461.152c-4.396,4.44-9.048,8.633-14.001,12.465c-10.099,7.821-22.607,11.9-35.381,11.9
		H204.994c-12.774,0-25.291-4.078-35.39-11.9c-4.952-3.831-9.604-8.024-14.001-12.465C64.124,465.195,0,474.579,0,485.516
		c0,14.627,114.609,26.483,256,26.483c141.383,0,256-11.855,256-26.483C512,474.579,447.868,465.195,356.387,461.152" style="fill:#6CA1E9;"/>
        <path d="M370.755,79.45H141.238c-4.873,0-8.828-3.955-8.828-8.828c0-4.873,3.955-8.828,8.828-8.828h229.517
		c4.873,0,8.828,3.955,8.828,8.828C379.583,75.495,375.628,79.45,370.755,79.45" style="fill:#556080;"/>
    </g>
    <g/>
    <g/>
    <g/>
    <g/>
    <g/>
    <g/>
    <g/>
    <g/>
    <g/>
    <g/>
    <g/>
    <g/>
    <g/>
    <g/>
    <g/>
</svg>
